<?xml version='1.0' encoding='iso-8859-1'?>
<!DOCTYPE svg PUBLIC '-//W3C//DTD SVG 1.1//EN' 'http://www.w3.org/Graphics/SVG/1.1/DTD/svg11.dtd'>
<!-- Uploaded to: SVG Repo, www.svgrepo.com, Generator: SVG Repo Mixer Tools -->
<svg fill="#000000" height="800px" width="800px" version="1.1" xmlns="http://www.w3.org/2000/svg" viewBox="0 0 297 297" xmlns:xlink="http://www.w3.org/1999/xlink" enable-background="new 0 0 297 297">
  <path d="m293.498,251.182l-40.029-33.93v-71.237h31.114c4.102,0 7.777-2.526 9.247-6.354 1.471-3.828 0.431-8.166-2.616-10.91l-137.198-123.617c-3.766-3.392-9.485-3.395-13.253-0.007l-137.48,123.617c-3.05,2.744-4.095,7.083-2.625,10.913 1.468,3.83 5.145,6.358 9.248,6.358h31.114v138.491c0,5.471 4.436,9.905 9.905,9.905h192.639c4.672,0 8.577-3.237 9.622-7.588l6.183,5.239c1.796,1.522 4.068,2.349 6.404,2.349 0.29,0 0.581-0.012 0.872-0.038 2.638-0.233 5.071-1.513 6.76-3.552l21.321-25.77c3.459-4.178 2.911-10.362-1.228-13.869zm-146.119-225.362l111.413,100.385h-11.456l-93.499-83.336c-3.756-3.349-9.426-3.348-13.181-0.001l-93.504,83.337h-11.415l111.642-100.385zm86.28,248.781h-172.829v-134.051l86.416-77.019 86.412,77.019v59.911l-16.704-14.159c2.348-8.043 3.188-16.536 2.375-25.13-1.686-17.846-10.219-33.968-24.03-45.395-12.007-9.935-27.188-15.406-42.749-15.406-20.086,0-38.942,8.867-51.735,24.329-11.428,13.811-16.794,31.244-15.107,49.09 1.685,17.847 10.22,33.968 24.03,45.395 12.006,9.936 27.188,15.406 42.749,15.406 10.757,0 21.149-2.565 30.459-7.302l50.713,42.983v4.329zm-44.701-76.968c-9.017,10.897-22.311,17.147-36.472,17.147-10.961,0-21.657-3.855-30.12-10.859-9.734-8.053-15.749-19.416-16.937-31.993-1.188-12.577 2.593-24.865 10.646-34.599 9.018-10.897 22.312-17.147 36.474-17.147 10.961,0 21.657,3.856 30.119,10.859 9.734,8.054 15.749,19.416 16.938,31.993 1.188,12.579-2.593,24.865-10.648,34.599zm75.573,72.837l-65.011-55.103c1.641-1.613 3.217-3.31 4.701-5.105 1.436-1.736 2.777-3.53 4.021-5.375l64.981,55.078-8.692,10.505z"/>
</svg>