<?xml version='1.0' encoding='iso-8859-1'?>
<!DOCTYPE svg PUBLIC '-//W3C//DTD SVG 1.1//EN' 'http://www.w3.org/Graphics/SVG/1.1/DTD/svg11.dtd'>
<!-- Uploaded to: SVG Repo, www.svgrepo.com, Generator: SVG Repo Mixer Tools -->
<svg fill="#000000" height="800px" width="800px" version="1.1" xmlns="http://www.w3.org/2000/svg" viewBox="0 0 297 297" xmlns:xlink="http://www.w3.org/1999/xlink" enable-background="new 0 0 297 297">
  <path d="m293.697,128.584l-138.368-124.672c-3.797-3.422-9.565-3.424-13.366-0.006l-138.652,124.67c-3.076,2.766-4.13,7.143-2.647,11.004 1.48,3.863 5.189,6.414 9.327,6.414h31.38v139.672c0,5.518 4.473,9.99 9.989,9.99h194.281c5.517,0 9.989-4.473 9.989-9.99v-139.672h31.38c4.136,0 7.843-2.549 9.325-6.408 1.484-3.86 0.435-8.235-2.638-11.002zm-232.347,147.092v-135.194l79.66-70.998v66.73c-2.684,0.354-5.309,0.895-7.861,1.609l-9.298-22.016c-1.61-3.813-6.006-5.598-9.817-3.986-3.812,1.609-5.597,6.004-3.986,9.816l9.333,22.101c-2.001,1.195-3.918,2.516-5.751,3.939l-5.617-5.617c-2.926-2.926-7.67-2.926-10.596,0-2.927,2.926-2.927,7.67-0.001,10.596l5.678,5.678c-1.384,1.826-2.652,3.744-3.812,5.732l-20.903-11.604c-3.619-2.006-8.178-0.701-10.187,2.916-2.008,3.617-0.704,8.178 2.915,10.186l22.374,12.42c-0.622,2.334-1.092,4.729-1.414,7.168h-9.499c-4.139,0-7.493,3.355-7.493,7.494 0,4.137 3.354,7.492 7.493,7.492h9.499c0.322,2.439 0.792,4.834 1.414,7.168l-22.374,12.42c-3.619,2.008-4.923,6.568-2.915,10.186 1.368,2.467 3.924,3.857 6.558,3.857 1.229,0 2.478-0.303 3.629-0.941l20.903-11.604c1.159,1.988 2.428,3.906 3.812,5.732l-5.678,5.678c-2.926,2.926-2.926,7.67 0.001,10.596 1.463,1.465 3.38,2.195 5.297,2.195s3.836-0.732 5.299-2.195l5.617-5.617c1.679,1.305 3.424,2.525 5.244,3.641l-8.826,20.902c-1.61,3.813 0.175,8.207 3.986,9.816 0.952,0.402 1.939,0.592 2.912,0.592 2.921,0 5.697-1.719 6.905-4.578l8.733-20.68c2.73,0.797 5.544,1.391 8.426,1.771v26.596h-79.66zm45.192-83.025c0-20.58 14.896-37.732 34.468-41.275v82.549c-19.572-3.543-34.468-20.696-34.468-41.274zm49.95-8.717c4.713,0 8.548,3.91 8.548,8.717 0,4.805-3.835,8.713-8.548,8.713v-17.43zm79.159,91.745h-79.656v-14.398c0.165,0.012 0.33,0.025 0.498,0.025 4.138,0 7.492-3.354 7.492-7.492v-5.09l2.32,2.33c1.465,1.469 3.387,2.205 5.309,2.205 1.913,0 3.826-0.729 5.287-2.186 2.932-2.92 2.94-7.664 0.021-10.596l-12.937-12.984v-12.383c1.048-0.355 2.063-0.781 3.039-1.277l14.405,14.457c1.464,1.469 3.386,2.205 5.308,2.205 1.913,0 3.826-0.729 5.288-2.186 2.932-2.922 2.939-7.666 0.019-10.596l-14.48-14.531c0.484-0.977 0.9-1.992 1.248-3.039h12.374l12.925,12.971c1.464,1.469 3.386,2.205 5.308,2.205 1.913,0 3.826-0.729 5.288-2.186 2.931-2.92 2.939-7.664 0.018-10.596l-2.386-2.395h5.102c4.139,0 7.492-3.355 7.492-7.492 0-4.139-3.354-7.494-7.492-7.494h-5.104l2.389-2.396c2.92-2.932 2.911-7.676-0.021-10.596-2.931-2.92-7.675-2.914-10.596,0.02l-12.924,12.973h-12.373c-0.349-1.047-0.765-2.063-1.249-3.041l14.48-14.529c2.921-2.932 2.913-7.676-0.019-10.596-2.932-2.924-7.676-2.914-10.596,0.018l-14.405,14.457c-0.977-0.494-1.991-0.922-3.039-1.277v-12.381l12.936-12.982c2.921-2.932 2.912-7.674-0.018-10.596-2.933-2.922-7.677-2.914-10.596,0.02l-2.321,2.33v-5.09c0-4.139-3.354-7.492-7.492-7.492-0.168,0-0.333,0.016-0.498,0.025v-54.536l79.656,70.998v135.194zm13.794-149.661l-94.297-84.047c-3.787-3.377-9.506-3.377-13.293-0.002l-94.301,84.049h-11.512l112.594-101.24 112.362,101.24h-11.553z"/>
</svg>